# xmcd
# Copyright (C) 1995-1998 Ti Kan
#
# Track frame offsets:
#       150
#       3504
#       17951
#       31518
#       49260
#       66867
#       88184
#       109411
#       130346
#       144111
#       162662
#       181903
#       200664
#       217838
#       240431
#       261492
#       277175
#       307113
#
# Disc length: 4387 seconds
#
# Revision: 0
# Processed by: cddbd v1.5.2PL0 Copyright (c) Steve Scherf et al.
# Submitted via: CD-Transfer v1.0
#
DISCID=0b112112
DTITLE=Alabama 3 - 
DYEAR=1900
DGENRE=
TTITLE0=Intro
TTITLE1=Ain't Goin' To Goa
TTITLE2=Mansion On The Hill
TTITLE3=Up Above My Head
TTITLE4=Fullet Proof Ft. Siobhan Parr and B Atwell
TTITLE5=Too Sick To Pray
TTITLE6=Have You Seen Bruce Richard Reynolds
TTITLE7=Power In The Blood
TTITLE8=Mao Tse Tung Said
TTITLE9=How Can I Protect You
TTITLE10=Woody Guthrie
TTITLE11=Woke Up This Morning
TTITLE12=Hello... I'm Johnny Cash
TTITLE13=Minesweeping (Ministers At Work Mix)
TTITLE14=Speed Of The Sound Of Loneliness
TTITLE15=Terra Firma Cowboy Blues
TTITLE16=Track 17 Hypo Full Of Love (The 12-Step Plan)
TTITLE17=Peace In The Valley (Acoustic Vers.)
EXTD=
EXTT0=
EXTT1=
EXTT2=
EXTT3=
EXTT4=
EXTT5=
EXTT6=
EXTT7=
EXTT8=
EXTT9=
EXTT10=
EXTT11=
EXTT12=
EXTT13=
EXTT14=
EXTT15=
EXTT16=
EXTT17=
PLAYORDER=
